<svg width="20" height="20" viewBox="0 0 20 20" fill="none" xmlns="http://www.w3.org/2000/svg">
<path d="M9.16663 3.33333H3.33329C2.89127 3.33333 2.46734 3.50892 2.15478 3.82148C1.84222 4.13404 1.66663 4.55797 1.66663 4.99999V16.6667C1.66663 17.1087 1.84222 17.5326 2.15478 17.8452C2.46734 18.1577 2.89127 18.3333 3.33329 18.3333H15C15.442 18.3333 15.8659 18.1577 16.1785 17.8452C16.491 17.5326 16.6666 17.1087 16.6666 16.6667V10.8333" stroke="#5AB359" stroke-width="2" stroke-linecap="round" stroke-linejoin="round"/>
<path d="M15.4166 2.08333C15.7481 1.75181 16.1978 1.56557 16.6666 1.56557C17.1355 1.56557 17.5851 1.75181 17.9166 2.08333C18.2481 2.41485 18.4344 2.86449 18.4344 3.33333C18.4344 3.80217 18.2481 4.25181 17.9166 4.58333L9.99996 12.5L6.66663 13.3333L7.49996 10L15.4166 2.08333Z" stroke="#5AB359" stroke-width="2" stroke-linecap="round" stroke-linejoin="round"/>
</svg>
